<svg width="20" height="21" viewBox="0 0 20 21" fill="none" xmlns="http://www.w3.org/2000/svg">
<g id="&#240;&#159;&#166;&#134; icon &#34;whatsapp thin&#34;">
<path id="Vector" d="M10.0818 0.505524C15.5597 0.506207 20 4.94701 20 10.4249C20 15.9032 15.559 20.3443 10.0806 20.3443C8.43161 20.3443 6.87655 19.9419 5.50836 19.2299L5.56333 19.256L0 20.4945L1.2385 14.9301C0.556392 13.62 0.156339 12.0692 0.156339 10.4249C0.156339 4.94877 4.59387 0.509057 10.0692 0.505563H10.0696L10.0818 0.505524ZM10.0818 19.3996C15.0384 19.3996 19.0565 15.3815 19.0565 10.4249C19.0565 5.46833 15.0384 1.45026 10.0818 1.45026H10.0696C5.11557 1.45365 1.10088 5.47044 1.10088 10.4249C1.10088 11.9688 1.49074 13.4217 2.17739 14.6905L2.15391 14.643L2.23609 14.797L1.24509 19.2494L5.69748 18.2584L5.85145 18.3405C7.07529 19.0061 8.53122 19.398 10.0786 19.3996H10.079H10.0818ZM11.5811 16.3028C9.5814 16.1974 7.81509 15.2787 6.59282 13.8741L6.58548 13.8655C4.1179 11.3696 3.98094 9.12121 4.30686 7.67771C4.53505 6.67485 5.00325 5.8042 5.6485 5.09808L5.64456 5.10244L5.97898 4.76801L9.25522 8.04427L9.05591 8.44293C8.90951 8.72559 8.82366 9.05997 8.82366 9.41447C8.82366 10.0141 9.06936 10.5564 9.46559 10.9461L9.46588 10.9464C9.85449 11.3424 10.3953 11.5879 10.9935 11.5879H11.0004H11.0001C11.3533 11.5873 11.6864 11.5022 11.9806 11.3517L11.9684 11.3573L12.0525 11.3148L12.4946 11.2837L15.683 14.472L15.3485 14.8065C14.3576 15.7162 13.0358 16.2795 11.5828 16.2972L11.5792 16.2972L11.5811 16.3028ZM6.01396 6.14069C5.64659 6.64705 5.37014 7.24527 5.22287 7.89261L5.21663 7.92521C4.83877 9.67766 5.52841 11.4528 7.25909 13.2014C8.32007 14.4367 9.84628 15.2466 11.5629 15.3572L11.5811 15.3582C12.613 15.3432 13.5623 15.0021 14.3339 14.4335L14.3208 14.4427L12.1848 12.3068C11.8371 12.4531 11.4329 12.5385 11.0089 12.5391H11.0086C9.28456 12.5319 7.88972 11.1326 7.88972 9.40748C7.88972 8.98642 7.97282 8.58475 8.12352 8.218L8.1159 8.23885L6.01396 6.14069Z" fill="black"/>
</g>
</svg>
